<svg xmlns="http://www.w3.org/2000/svg" width="55" height="53" viewBox="0 0 55 53" fill="none">
  <g clip-path="url(#clip0_16_68)">
    <path d="M48.6837 52.9145H24.738C21.255 52.9145 18.4218 50.9199 18.4218 48.4679V4.44656C18.4218 1.99458 21.255 0 24.738 0H48.6837C52.1667 0 55 1.99458 55 4.44656V48.4679C55 50.9199 52.1667 52.9145 48.6837 52.9145Z" fill="#DADBDC"/>
    <path d="M48.7011 51.7107H24.7207C22.1428 51.7107 20.0449 50.2338 20.0449 48.419V4.40902C20.0449 2.59426 22.1428 1.11731 24.7207 1.11731H48.7011C51.2789 1.11731 53.3769 2.59426 53.3769 4.40902V48.419C53.3769 50.2338 51.2789 51.7107 48.7011 51.7107Z" fill="white"/>
    <path d="M40.1021 4.04678H33.3208C32.4256 4.04678 31.6978 3.53438 31.6978 2.90415C31.6978 2.27391 32.4256 1.76152 33.3208 1.76152H40.1021C40.9973 1.76152 41.7251 2.27391 41.7251 2.90415C41.7251 3.53438 40.9973 4.04678 40.1021 4.04678Z" fill="#DADBDC"/>
    <path d="M47.0222 17.486H27.1795C26.7864 17.486 26.4665 17.1997 26.4665 16.8488C26.4665 16.4978 26.7864 16.2115 27.1795 16.2115H47.0222C47.4153 16.2115 47.7352 16.4978 47.7352 16.8488C47.7352 17.1997 47.4153 17.486 47.0222 17.486Z" fill="#0E0E0E"/>
    <path d="M47.0222 20.3098H27.1795C26.7864 20.3098 26.4665 20.0235 26.4665 19.6726C26.4665 19.3217 26.7864 19.0354 27.1795 19.0354H47.0222C47.4153 19.0354 47.7352 19.3217 47.7352 19.6726C47.7352 20.0235 47.4153 20.3098 47.0222 20.3098Z" fill="#0E0E0E"/>
    <path d="M41.3321 23.1336H27.1795C26.7864 23.1336 26.4665 22.8473 26.4665 22.4964C26.4665 22.1455 26.7864 21.8592 27.1795 21.8592H41.3321C41.7252 21.8592 42.0451 22.1455 42.0451 22.4964C42.0451 22.8473 41.7252 23.1336 41.3321 23.1336Z" fill="#0E0E0E"/>
    <path d="M36.7109 39.7363C41.3887 39.7363 45.1809 37.0666 45.1809 33.7735C45.1809 30.4803 41.3887 27.8107 36.7109 27.8107C32.033 27.8107 28.2408 30.4803 28.2408 33.7735C28.2408 37.0666 32.033 39.7363 36.7109 39.7363Z" fill="#6C63FF"/>
    <path d="M34.4579 33.8974C34.8956 34.5006 35.3333 35.1046 35.771 35.7078C35.8962 35.8815 36.2645 35.8265 36.3376 35.6554C36.9117 34.3077 37.9781 33.0795 39.4152 32.1027C39.7028 31.9072 39.2639 31.5991 38.9762 31.7937C37.4635 32.822 36.3438 34.1218 35.7387 35.5393L36.3054 35.487C35.8677 34.8838 35.43 34.2797 34.9923 33.6766C34.8113 33.426 34.2756 33.6469 34.4566 33.8965H34.4579V33.8974Z" fill="white"/>
    <path d="M13.8774 26.5607L11.824 27.0539L11.7918 24.9667L13.6604 24.9519L13.8774 26.5607Z" fill="#F3A3A6"/>
    <path d="M12.0323 25.5429C13.1664 25.5429 14.0857 24.8957 14.0857 24.0973C14.0857 23.299 13.1664 22.6518 12.0323 22.6518C10.8983 22.6518 9.979 23.299 9.979 24.0973C9.979 24.8957 10.8983 25.5429 12.0323 25.5429Z" fill="#F3A3A6"/>
    <path d="M12.594 23.9498C12.2506 23.9454 12.0212 23.7028 11.8836 23.4802C11.7459 23.2585 11.6046 23.0027 11.2859 22.9128C11.0243 22.8395 10.5729 23.3519 10.3646 23.2183C10.1476 23.0787 10.346 22.3507 10.5717 22.2188C10.7974 22.087 11.1086 22.0591 11.4012 22.0469C12.1167 22.0181 12.8358 22.053 13.5389 22.1508C13.9729 22.211 14.4217 22.3035 14.7379 22.5217C15.1384 22.7985 15.2463 23.2201 15.281 23.6146C15.3169 24.0179 15.2897 24.4413 15.0169 24.7974C14.7429 25.1527 14.1638 25.418 13.6021 25.3325C13.5426 25.1186 13.5959 24.8987 13.6145 24.6804C13.6331 24.4631 13.6058 24.2283 13.4149 24.0563C13.2239 23.8843 12.8197 23.8189 12.6027 23.9743" fill="#2F2E43"/>
    <path d="M15.1273 24.4308C15.3306 24.3234 15.5749 24.2326 15.8278 24.2527C16.1019 24.2737 16.335 24.4308 16.4081 24.6176C16.4813 24.8044 16.4057 25.0113 16.2395 25.1658C16.0733 25.3203 15.8241 25.4233 15.5588 25.4756C15.405 25.5062 15.2376 25.5193 15.0901 25.4756C14.8731 25.4119 14.7541 25.219 14.8359 25.0636" fill="#2F2E43"/>
    <path d="M7.48675 38.0873C7.35779 38.5631 7.61446 38.9952 8.06208 39.0519C8.50845 39.1086 8.97591 38.7682 9.10487 38.2925C9.16066 38.1031 9.14826 37.9067 9.06891 37.7207L10.6486 30.2653L8.52085 30.0008L7.82029 37.5627C7.64918 37.7172 7.53386 37.8971 7.48675 38.0882V38.0873Z" fill="#F3A3A6"/>
    <path d="M11.7868 26.0963L10.3374 26.1076C9.3144 26.2246 9.04161 26.6122 8.8209 27.3245C8.4824 28.4112 8.0509 29.8594 8.14142 29.8794C8.28649 29.9126 10.7664 30.7104 12.0212 30.5132L11.7868 26.0963Z" fill="#6C63FF"/>
    <path d="M13.5669 49.7913L11.6376 49.8064L11.6682 51.7328L13.5974 51.7177L13.5669 49.7913Z" fill="#F3A3A6"/>
    <path d="M9.80296 52.9145C9.59961 52.9162 9.41982 52.9144 9.28342 52.9066C8.77009 52.8778 8.27783 52.615 8.0286 52.4614C7.91701 52.3925 7.87981 52.2807 7.93561 52.1847C7.97529 52.1157 8.05712 52.0634 8.1588 52.0415L9.50909 51.7587L11.6852 50.6999L11.71 50.7304C11.7199 50.7418 11.9394 51.0133 12.0138 51.1975C12.0423 51.2673 12.0361 51.3258 11.9952 51.3712C11.9667 51.4026 11.927 51.4209 11.8947 51.4323C11.9344 51.4611 12.0596 51.5196 12.444 51.5597C13.0032 51.6182 13.1161 51.2088 13.1198 51.1913L13.1235 51.1774L13.1396 51.1695C13.4037 51.0464 13.5662 50.9906 13.6232 51.0019C13.6592 51.0089 13.7174 51.0211 13.8935 52.1315C13.9096 52.1664 14.025 52.4213 13.953 52.6665C13.8749 52.9337 12.2221 52.8542 11.8923 52.8359C11.8823 52.8368 10.6474 52.9083 9.80048 52.9145H9.80296Z" fill="#342F8A"/>
    <path d="M19.0351 48.232L17.4095 48.9635L18.8835 50.5867L20.5091 49.8551L19.0351 48.232Z" fill="#F3A3A6"/>
    <path d="M16.9264 52.5941C16.6995 52.5958 16.4912 52.5784 16.3424 52.5609C16.1961 52.5435 16.0808 52.4632 16.056 52.3602C16.0374 52.286 16.0684 52.2118 16.1378 52.1559L17.0702 51.4131L18.1205 49.7039L18.1651 49.7205C18.1812 49.7266 18.5718 49.875 18.7739 50.0033C18.8508 50.0522 18.8892 50.1037 18.8892 50.1578C18.8892 50.1954 18.8694 50.2259 18.8496 50.2469C18.9053 50.2565 19.0554 50.2591 19.4112 50.15C19.9295 49.9911 19.7175 49.6018 19.7076 49.5861L19.7001 49.573L19.7088 49.5608C19.8403 49.3583 19.937 49.25 19.9928 49.2378C20.0287 49.2308 20.087 49.2186 21.0715 50.095C21.1112 50.1186 21.4013 50.2914 21.5241 50.5262C21.658 50.782 20.1974 51.3301 19.9023 51.4375C19.8936 51.4427 18.3672 52.2414 17.7398 52.4701C17.4906 52.5609 17.1942 52.5906 16.9239 52.5924L16.9264 52.5941Z" fill="#342F8A"/>
    <path d="M14.7293 33.6661L9.32808 33.708L8.8941 37.2485L11.245 50.3019L14.0027 50.28L12.7813 42.7399L17.3617 49.5206L19.7932 48.2933L16.1998 41.9578C16.1998 41.9578 17.3604 36.4052 16.3585 35.0322C15.3567 33.6591 14.7305 33.6643 14.7305 33.6643V33.6661H14.7293Z" fill="#2F2E43"/>
    <path d="M17.4187 33.8607L8.84076 33.928L11.2909 26.1006L15.0293 26.071L17.4187 33.8607Z" fill="#6C63FF"/>
    <path d="M18.2569 38.0035C18.4007 38.4775 18.1577 38.9131 17.7125 38.9768C17.2674 39.0405 16.79 38.708 16.6462 38.234C16.5842 38.0454 16.5904 37.849 16.6635 37.6614L14.8483 30.2321L16.9673 29.9344L17.906 37.4842C18.082 37.6361 18.2023 37.8141 18.2569 38.0044V38.0035Z" fill="#F3A3A6"/>
    <path d="M13.5798 26.0823L15.0293 26.071C16.056 26.1722 16.3399 26.5554 16.5842 27.2642C16.9562 28.3458 17.4336 29.786 17.3443 29.8079C17.1992 29.8428 14.7466 30.679 13.4856 30.5018L13.5811 26.0823H13.5798Z" fill="#6C63FF"/>
    <path d="M26.6686 52.9145C26.6686 52.9616 26.6141 53 26.5471 53H0.121514C0.0545573 53 0 52.9616 0 52.9145C0 52.8673 0.0545573 52.8289 0.121514 52.8289H26.5471C26.6141 52.8289 26.6686 52.8673 26.6686 52.9145Z" fill="#3F3D58"/>
  </g>
  <defs>
    <clipPath id="clip0_16_68">
      <rect width="55" height="53" fill="white"/>
    </clipPath>
  </defs>
</svg>